# Wavefront Obj file
# 
# verts: 68 uv-s: 152
mtllib NES.mtl

g Box001
#pivot 0.000000 0.000000 0.000000

v -8.536100 0.166600 2.064800
v 8.954000 0.000000 1.764000
v -8.692301 0.159900 -12.874200
v 8.954000 0.000000 -12.836300
v -9.394501 6.410700 2.531000
v 9.854599 6.241800 2.788900
v -9.394501 6.410700 -13.603300
v 10.004599 6.241800 -13.603300
v -9.394501 2.980200 2.788900
v 10.004599 2.980200 2.531100
v 9.854599 2.980200 -13.861200
v -9.544500 2.980200 -13.603300
v -8.692301 0.159900 1.801900
v -8.494001 0.000000 1.764000
v 9.152300 0.159900 1.801900
v 8.996099 0.166600 2.064800
v -8.536100 0.166600 -13.137100
v -8.494001 0.000000 -12.836300
v 8.996099 0.166600 -13.137100
v 9.152300 0.159900 -12.874200
v -9.544500 6.241800 2.531000
v -9.394501 6.241800 2.788900
v 10.004599 6.241800 2.531100
v 9.854599 6.410700 2.531100
v -9.394501 6.241800 -13.861200
v -9.544500 6.241800 -13.603300
v 9.854599 6.241800 -13.861200
v 9.854599 6.410700 -13.603300
v -9.544500 2.980200 2.531000
v 9.854599 2.980200 2.788900
v 10.004599 2.980200 -13.603300
v -9.394501 2.980200 -13.861200
v -8.653200 0.161600 1.998200
v -8.618601 0.040000 1.773500
v -8.504501 0.041600 1.968200
v 9.078600 0.040000 1.771800
v 9.113300 0.164900 1.999100
v 8.960199 0.041600 1.968200
v -8.654200 0.164900 -13.071300
v -8.504501 0.041600 -13.040800
v -8.618500 0.040000 -12.845800
v 8.960199 0.041600 -13.040400
v 9.113300 0.161600 -13.071300
v 9.078600 0.040000 -12.844100
v -9.507000 6.368500 2.531000
v -9.507000 6.241800 2.724500
v -9.394501 6.368500 2.724500
v 9.967100 6.241800 2.724500
v 9.967100 6.368500 2.531100
v 9.854599 6.368500 2.724500
v -9.394501 6.368500 -13.796700
v -9.507000 6.241800 -13.796700
v -9.507000 6.368500 -13.603300
v 9.967100 6.241800 -13.796700
v 9.854599 6.368500 -13.796700
v 9.967100 6.368500 -13.603300
v -9.507000 2.980200 2.724500
v 9.967100 2.980200 2.724500
v 9.967100 2.980200 -13.796700
v -9.507000 2.980200 -13.796700
v -8.598000 0.071600 1.975700
v 9.048500 0.041200 1.919100
v -8.627501 0.071200 -12.999200
v 9.049000 0.040400 -12.991800
v -9.478901 6.368500 2.676100
v 9.938900 6.336900 2.724500
v -9.478901 6.368500 -13.748400
v 9.967100 6.336900 -13.748400
# 68 positions

vt 0.616692 0.019547
vt 0.975536 0.019547
vt 0.975536 0.448381
vt 0.616692 0.448381
vt 0.010003 0.990000
vt 0.010000 0.429231
vt 0.480031 0.429231
vt 0.480031 0.990000
vt 0.035009 0.020673
vt 0.545762 0.020673
vt 0.570772 0.105310
vt 0.010001 0.105310
vt 0.570770 0.200328
vt 0.010000 0.200328
vt 0.676189 0.541212
vt 0.676189 0.968759
vt 0.590357 0.990000
vt 0.590357 0.519968
vt 0.495339 0.990000
vt 0.495340 0.519968
vt 0.044530 0.229928
vt 0.555282 0.229933
vt 0.580288 0.314570
vt 0.019519 0.314565
vt 0.580286 0.409588
vt 0.019517 0.409583
vt 0.881041 0.531692
vt 0.881039 0.959241
vt 0.795210 0.980481
vt 0.795210 0.510451
vt 0.700192 0.980482
vt 0.700192 0.510453
vt 0.487990 0.497041
vt 0.492140 0.497061
vt 0.491918 0.499902
vt 0.515869 0.500323
vt 0.511913 0.496664
vt 0.513808 0.494414
vt 0.488358 0.475235
vt 0.492273 0.478003
vt 0.487990 0.479540
vt 0.513658 0.473428
vt 0.510440 0.477738
vt 0.509722 0.473428
vt 0.523233 0.484812
vt 0.526008 0.488932
vt 0.523922 0.490837
vt 0.523233 0.474667
vt 0.527262 0.474188
vt 0.527062 0.476767
vt 0.487990 0.464781
vt 0.491675 0.461481
vt 0.491538 0.465753
vt 0.512721 0.463551
vt 0.508571 0.460633
vt 0.512721 0.459507
vt 0.885142 0.532519
vt 0.888952 0.532796
vt 0.888951 0.958137
vt 0.885139 0.958414
vt 0.045576 0.225324
vt 0.045757 0.219256
vt 0.554055 0.219256
vt 0.554362 0.225336
vt 0.680289 0.542089
vt 0.684101 0.542316
vt 0.684101 0.967655
vt 0.680289 0.967882
vt 0.035929 0.016071
vt 0.036235 0.010000
vt 0.544535 0.010000
vt 0.544716 0.016071
vt 0.570770 0.204468
vt 0.570770 0.210235
vt 0.010000 0.210238
vt 0.010000 0.204468
vt 0.491490 0.990000
vt 0.487990 0.990000
vt 0.487990 0.519968
vt 0.491490 0.519968
vt 0.580286 0.413730
vt 0.580286 0.419496
vt 0.019517 0.419492
vt 0.019517 0.413725
vt 0.696343 0.980482
vt 0.692842 0.980482
vt 0.692842 0.510453
vt 0.696343 0.510453
vt 0.590697 0.514239
vt 0.592054 0.510715
vt 0.677780 0.531693
vt 0.676405 0.535358
vt 0.881346 0.965065
vt 0.882632 0.968775
vt 0.796902 0.989738
vt 0.795548 0.986213
vt 0.495340 0.514229
vt 0.495340 0.510452
vt 0.590358 0.510453
vt 0.590358 0.514229
vt 0.795210 0.986223
vt 0.795210 0.990000
vt 0.700192 0.990000
vt 0.700192 0.986224
vt 0.015789 0.313963
vt 0.010667 0.311375
vt 0.035477 0.226507
vt 0.040683 0.229182
vt 0.015739 0.409582
vt 0.010000 0.409580
vt 0.010002 0.314564
vt 0.015741 0.314565
vt 0.795550 0.504722
vt 0.796905 0.501196
vt 0.882634 0.522158
vt 0.881248 0.525845
vt 0.700192 0.504714
vt 0.700191 0.500936
vt 0.795209 0.500934
vt 0.795210 0.504712
vt 0.490906 0.494236
vt 0.498062 0.497041
vt 0.496661 0.493039
vt 0.498042 0.500997
vt 0.512001 0.500997
vt 0.507868 0.494381
vt 0.507814 0.500323
vt 0.510256 0.491130
vt 0.494371 0.475235
vt 0.494596 0.481049
vt 0.497654 0.477447
vt 0.488792 0.483375
vt 0.512694 0.479570
vt 0.506970 0.480690
vt 0.509875 0.483375
vt 0.505611 0.474790
vt 0.526905 0.484812
vt 0.529038 0.491487
vt 0.530675 0.485862
vt 0.526339 0.494389
vt 0.525916 0.471746
vt 0.532780 0.473067
vt 0.531225 0.469459
vt 0.533073 0.476767
vt 0.490158 0.459179
vt 0.495204 0.459721
vt 0.493266 0.456416
vt 0.495576 0.465753
vt 0.506759 0.463061
vt 0.506081 0.458031
vt 0.503409 0.461264
vt 0.511763 0.455975
# 152 texture coordinates

vn -0.129406 -0.981544 0.140806
vn -0.129302 -0.981615 -0.140402
vn 0.112500 -0.985796 -0.124699
vn 0.113495 -0.985556 0.125694
vn -0.133406 0.982042 0.133406
vn 0.155899 0.975393 0.155899
vn 0.155899 0.975393 -0.155899
vn -0.133406 0.982042 -0.133406
vn -0.000000 -0.166199 0.986092
vn -0.000000 -0.166199 0.986092
vn -0.000000 -0.166199 0.986092
vn -0.000000 -0.166199 0.986092
vn -0.000000 -0.000000 1.000000
vn -0.000000 -0.000000 1.000000
vn -0.000000 -0.000000 1.000000
vn -0.000000 0.000000 1.000000
vn 0.946705 -0.322102 -0.000000
vn 0.946705 -0.322102 -0.000000
vn 0.946705 -0.322102 -0.000000
vn 0.946705 -0.322102 0.000000
vn 1.000000 0.000000 -0.000000
vn 1.000000 0.000000 -0.000000
vn 1.000000 0.000000 -0.000000
vn 1.000000 0.000000 -0.000000
vn 0.000000 -0.166199 -0.986092
vn 0.000000 -0.166199 -0.986092
vn 0.000000 -0.166199 -0.986092
vn 0.000000 -0.166199 -0.986092
vn 0.000000 0.000000 -1.000000
vn 0.000000 0.000000 -1.000000
vn 0.000000 0.000000 -1.000000
vn 0.000000 0.000000 -1.000000
vn -0.946705 -0.322102 0.000000
vn -0.946705 -0.322102 0.000000
vn -0.946705 -0.322102 0.000000
vn -0.946705 -0.322102 0.000000
vn -1.000000 0.000000 -0.000000
vn -1.000000 0.000000 -0.000000
vn -1.000000 0.000000 -0.000000
vn -1.000000 0.000000 -0.000000
vn -0.166504 -0.378210 0.910623
vn -0.186993 -0.411185 0.892166
vn -0.034199 -0.459388 0.887577
vn 0.183709 -0.962748 0.198410
vn 0.042102 -0.954535 0.295111
vn -0.859522 -0.480312 -0.174705
vn -0.838082 -0.509389 -0.195296
vn -0.818649 -0.572934 -0.039502
vn 0.179808 -0.964441 -0.193708
vn 0.272298 -0.961193 -0.044300
vn -0.212000 0.953998 0.212000
vn -0.046802 0.947634 0.315911
vn 0.178502 0.178502 0.967612
vn 0.212000 0.212000 0.953998
vn 0.046802 0.315911 0.947634
vn -0.212000 0.953998 -0.212000
vn -0.315911 0.947634 -0.046802
vn 0.967612 0.178502 -0.178502
vn 0.953998 0.212000 -0.212000
vn 0.947634 0.315911 -0.046802
vn -0.265307 -0.953425 -0.143504
vn -0.266007 -0.954626 0.133904
vn 0.037802 -0.954652 -0.295316
vn -0.128595 -0.950165 -0.283990
vn 0.272108 -0.961028 0.048801
vn -0.138595 -0.948967 0.283290
vn 0.157296 0.936874 0.312291
vn 0.312291 0.936874 -0.157296
vn 0.312891 0.938672 0.144896
vn -0.046802 0.947634 -0.315911
vn 0.144896 0.938672 -0.312891
vn -0.315911 0.947634 0.046802
vn 0.313793 -0.119197 0.941980
vn 0.313112 -0.140705 0.939235
vn 0.197600 -0.418201 0.886602
vn 0.285387 -0.359184 0.888561
vn -0.290700 -0.289400 0.911999
vn -0.312915 -0.140407 0.939346
vn -0.314011 -0.119004 0.941932
vn 0.315911 0.046802 0.947634
vn -0.208397 0.208397 0.955585
vn -0.312891 0.144896 0.938672
vn 0.933801 -0.176200 -0.311400
vn 0.932865 -0.181793 -0.310988
vn 0.838907 -0.506904 -0.198202
vn 0.838893 -0.459596 -0.291598
vn 0.947634 0.046802 -0.315911
vn -0.313793 -0.119197 -0.941980
vn -0.313112 -0.140705 -0.939235
vn -0.194495 -0.413090 -0.889679
vn -0.284087 -0.366083 -0.886159
vn -0.312891 0.144896 -0.938672
vn -0.208397 0.208397 -0.955585
vn -0.807097 -0.577698 0.121900
vn -0.769610 -0.577208 0.273004
vn -0.834011 -0.468206 0.291904
vn -0.839121 -0.506313 0.198805
vn -0.252795 -0.929980 0.266894
vn 0.836660 -0.457478 0.301186
vn 0.770835 -0.572926 0.278513
vn 0.804314 -0.577910 0.138202
vn 0.836220 -0.508312 0.205805
vn 0.116797 -0.478690 0.870181
vn 0.263301 -0.503002 0.823202
vn -0.871924 -0.383911 -0.303909
vn -0.108004 -0.473520 -0.874136
vn -0.269101 -0.501401 -0.822302
vn -0.252403 -0.930512 -0.265404
vn 0.278192 -0.360090 -0.890474
vn 0.255901 -0.506803 -0.823204
vn 0.112300 -0.479001 -0.870601
vn 0.191203 -0.415406 -0.889314
vn 0.804663 -0.578874 -0.131994
vn 0.770970 -0.577278 -0.268990
vn -0.938672 0.144896 0.312891
vn -0.904534 0.301511 0.301511
vn -0.936874 0.312291 0.157296
vn -0.955585 0.208397 0.208397
vn -0.157296 0.312291 0.936874
vn -0.301511 0.301511 0.904534
vn 0.938672 0.312891 0.144896
vn 0.904534 0.301511 0.301511
vn 0.936874 0.157296 0.312291
vn 0.955585 0.208397 0.208397
vn 0.301511 0.904534 0.301511
vn -0.301511 0.301511 -0.904534
vn -0.157296 0.312291 -0.936874
vn -0.955585 0.208397 -0.208397
vn -0.936874 0.312291 -0.157296
vn -0.904534 0.301511 -0.301511
vn -0.938672 0.144896 -0.312891
vn 0.144896 0.312891 -0.938672
vn 0.301511 0.301511 -0.904534
vn 0.312291 0.157296 -0.936874
vn 0.208397 0.208397 -0.955585
vn 0.301511 0.904534 -0.301511
vn 0.932713 -0.182203 0.311204
vn 0.933764 -0.176593 0.311288
vn -0.933801 -0.176200 0.311400
vn -0.932865 -0.181793 0.310988
vn 0.312890 -0.140296 -0.939370
vn 0.313985 -0.118894 -0.941954
vn -0.932789 -0.181998 -0.311096
vn -0.933797 -0.176399 -0.311299
# 144 normals

usemtl wire_184228153
s 1
f 14/1/1 18/2/2 4/3/3
f 4/3/3 2/4/4 14/1/1
f 2/36/4 62/37/44 38/38/45
f 4/42/3 64/43/49 44/44/50
f 41/57/61 18/58/2 14/59/1
f 14/59/1 34/60/62 41/57/61
f 42/61/63 4/62/3 18/63/2
f 18/63/2 40/64/64 42/61/63
f 36/65/65 2/66/4 4/67/3
f 4/67/3 44/68/50 36/65/65
f 35/69/66 14/70/1 2/71/4
f 2/71/4 38/72/45 35/69/66
f 14/124/1 35/35/66 61/34/98
f 61/34/98 34/122/62 14/124/1
f 2/36/4 36/125/65 62/37/44
f 18/132/2 41/41/61 63/40/108
f 63/40/108 40/130/64 18/132/2
f 4/42/3 42/133/63 64/43/49
s 2
f 5/5/5 24/6/6 28/7/7
f 28/7/7 7/8/8 5/5/5
f 5/45/5 65/46/51 47/47/52
f 7/51/8 67/52/56 53/53/57
f 50/73/67 24/74/6 5/75/5
f 5/75/5 47/76/52 50/73/67
f 56/77/68 28/78/7 24/79/6
f 24/79/6 49/80/69 56/77/68
f 51/81/70 7/82/8 28/83/7
f 28/83/7 55/84/71 51/81/70
f 45/85/72 5/86/5 7/87/8
f 7/87/8 53/88/57 45/85/72
f 5/45/5 45/137/72 65/46/51
f 24/144/6 50/50/67 66/49/125
f 66/49/125 49/142/69 24/144/6
f 7/51/8 51/145/70 67/52/56
f 28/152/7 56/56/68 68/55/136
f 68/55/136 55/150/71 28/152/7
s 3
f 1/9/9 16/10/10 30/11/11
f 30/11/11 9/12/12 1/9/9
s 4
f 9/12/13 30/11/14 6/13/15
f 6/13/15 22/14/16 9/12/13
s 5
f 15/15/17 20/16/18 31/17/19
f 31/17/19 10/18/20 15/15/17
s 6
f 10/18/21 31/17/22 8/19/23
f 8/19/23 23/20/24 10/18/21
s 7
f 19/21/25 17/22/26 32/23/27
f 32/23/27 11/24/28 19/21/25
s 8
f 11/24/29 32/23/30 25/25/31
f 25/25/31 27/26/32 11/24/29
s 9
f 3/27/33 13/28/34 29/29/35
f 29/29/35 12/30/36 3/27/33
s 10
f 12/30/37 29/29/38 21/31/39
f 21/31/39 26/32/40 12/30/37
s 11
f 1/33/41 61/34/42 35/35/43
f 6/48/53 66/49/54 50/50/55
f 58/89/73 30/90/74 16/91/75
f 16/91/75 37/92/76 58/89/73
f 33/93/77 1/94/41 9/95/78
f 9/95/78 57/96/79 33/93/77
f 48/97/80 6/98/53 30/99/74
f 30/99/74 58/100/73 48/97/80
f 57/101/79 9/102/78 22/103/81
f 22/103/81 46/104/82 57/101/79
f 1/33/41 33/121/77 61/34/42
f 16/128/75 38/38/103 62/37/104
f 62/37/104 37/126/76 16/128/75
f 22/140/81 47/47/119 65/46/120
f 65/46/120 46/138/82 22/140/81
f 6/48/53 48/141/80 66/49/54
f 1/9/41 35/69/43 38/72/103
f 38/72/103 16/10/75 1/9/41
f 6/13/53 50/73/55 47/76/119
f 47/76/119 22/14/81 6/13/53
s 12
f 3/39/46 63/40/47 41/41/48
f 34/122/94 61/34/95 33/121/96
f 33/121/96 13/123/97 34/122/94
f 3/39/46 39/129/105 63/40/47
f 46/138/115 65/46/116 45/137/117
f 45/137/117 21/139/118 46/138/115
f 26/148/128 53/53/129 67/52/130
f 67/52/130 52/146/131 26/148/128
f 3/27/46 41/57/48 34/60/94
f 34/60/94 13/28/97 3/27/46
f 21/31/118 45/85/117 53/88/129
f 53/88/129 26/32/128 21/31/118
f 13/28/97 33/93/96 57/96/139
f 57/96/139 29/29/140 13/28/97
f 29/29/140 57/101/139 46/104/115
f 46/104/115 21/31/118 29/29/140
f 12/30/143 60/113/144 39/116/105
f 39/116/105 3/27/46 12/30/143
f 26/32/128 52/117/131 60/120/144
f 60/120/144 12/30/143 26/32/128
s 13
f 8/54/58 68/55/59 56/56/60
f 59/105/83 31/106/84 20/107/85
f 20/107/85 43/108/86 59/105/83
f 54/109/87 8/110/58 31/111/84
f 31/111/84 59/112/83 54/109/87
f 37/126/99 62/37/100 36/125/101
f 36/125/101 15/127/102 37/126/99
f 20/136/85 44/44/113 64/43/114
f 64/43/114 43/134/86 20/136/85
f 49/142/121 66/49/122 48/141/123
f 48/141/123 23/143/124 49/142/121
f 8/54/58 54/149/87 68/55/59
f 15/15/102 36/65/101 44/68/113
f 44/68/113 20/16/85 15/15/102
f 8/19/58 56/77/60 49/80/121
f 49/80/121 23/20/124 8/19/58
f 10/18/137 58/89/138 37/92/99
f 37/92/99 15/15/102 10/18/137
f 23/20/124 48/97/123 58/100/138
f 58/100/138 10/18/137 23/20/124
s 14
f 60/113/88 32/114/89 17/115/90
f 17/115/90 39/116/91 60/113/88
f 52/117/92 25/118/93 32/119/89
f 32/119/89 60/120/88 52/117/92
f 40/130/106 63/40/107 39/129/91
f 39/129/91 17/131/90 40/130/106
f 43/134/109 64/43/110 42/133/111
f 42/133/111 19/135/112 43/134/109
f 52/146/92 67/52/126 51/145/127
f 51/145/127 25/147/93 52/146/92
f 55/150/132 68/55/133 54/149/134
f 54/149/134 27/151/135 55/150/132
f 19/21/112 42/61/111 40/64/106
f 40/64/106 17/22/90 19/21/112
f 25/25/93 51/81/127 55/84/132
f 55/84/132 27/26/135 25/25/93
f 11/24/141 59/105/142 43/108/109
f 43/108/109 19/21/112 11/24/141
f 27/26/135 54/109/134 59/112/142
f 59/112/142 11/24/141 27/26/135

# 132 faces
